<?xml version="1.0" standalone="no"?>
<!DOCTYPE svg PUBLIC "-//W3C//DTD SVG 20010904//EN"
 "http://www.w3.org/TR/2001/REC-SVG-20010904/DTD/svg10.dtd">
<svg version="1.0" xmlns="http://www.w3.org/2000/svg"
 width="512.000000pt" height="512.000000pt" viewBox="0 0 512.000000 512.000000"
 preserveAspectRatio="xMidYMid meet">
<metadata>
Created by potrace 1.11, written by Peter Selinger 2001-2013
</metadata>
<g transform="translate(0.000000,512.000000) scale(0.100000,-0.100000)"
fill="#000000" stroke="none">
<path d="M2538 5034 c-2 -1 -15 -5 -28 -7 -14 -2 -38 -9 -53 -15 -16 -7 -31
-12 -33 -12 -11 0 -81 -57 -117 -95 -55 -58 -122 -163 -168 -263 -23 -48 -41
-88 -40 -89 0 -2 -6 -18 -15 -38 -8 -19 -11 -35 -7 -35 5 0 3 -4 -3 -8 -10 -7
-58 -141 -68 -192 -3 -14 -10 -41 -16 -60 -6 -19 -13 -44 -15 -55 -23 -110
-25 -113 -51 -101 -13 6 -24 14 -24 19 0 4 -4 7 -9 7 -8 0 -111 57 -181 100
-28 17 -165 82 -230 110 -105 44 -108 45 -147 54 -12 2 -30 9 -40 13 -10 5
-25 9 -33 8 -8 -1 -22 2 -31 7 -17 7 -131 22 -159 19 -8 0 -28 -1 -45 -1 -36
-1 -121 -27 -155 -49 -127 -80 -172 -240 -125 -450 25 -111 19 -92 70 -226 31
-79 155 -328 167 -333 5 -2 8 -8 8 -13 0 -5 12 -28 27 -52 57 -88 63 -106 36
-105 -10 1 -45 -7 -78 -16 -33 -9 -67 -19 -75 -21 -8 -2 -17 -4 -20 -5 -3 -1
-9 -3 -15 -4 -23 -4 -101 -27 -120 -36 -20 -9 -61 -22 -80 -26 -23 -4 -175
-70 -235 -102 -90 -48 -170 -102 -170 -115 0 -6 -3 -7 -6 -4 -12 12 -103 -95
-129 -152 -27 -57 -40 -156 -25 -196 26 -69 44 -105 53 -105 6 0 7 -3 4 -6 -9
-9 104 -125 114 -118 5 3 9 1 9 -5 0 -5 26 -25 57 -45 32 -19 64 -40 71 -46 6
-6 12 -8 12 -6 0 3 25 -8 55 -24 30 -16 55 -27 55 -25 0 3 11 -2 25 -11 14 -9
25 -12 25 -8 0 5 4 4 8 -1 6 -9 199 -78 251 -90 9 -3 52 -14 96 -25 100 -27
106 -28 127 -29 13 -1 -1 -32 -61 -134 -42 -72 -84 -147 -92 -164 -7 -18 -17
-33 -21 -33 -5 0 -7 -3 -6 -7 1 -5 -7 -28 -19 -53 -108 -232 -158 -453 -131
-570 5 -19 11 -46 14 -59 13 -62 87 -143 162 -177 59 -27 190 -39 261 -23 20
4 50 10 66 13 52 9 67 13 165 49 111 40 172 68 182 82 4 6 8 7 8 2 0 -6 112
50 185 95 17 10 37 21 45 25 8 3 39 21 68 40 29 18 54 33 57 33 5 0 26 -75 30
-106 1 -11 5 -25 8 -31 3 -5 8 -20 11 -34 5 -22 9 -40 20 -86 21 -85 124 -345
155 -393 9 -14 23 -38 31 -55 8 -16 20 -35 25 -42 6 -7 16 -19 23 -27 6 -8 12
-18 12 -21 0 -14 88 -98 134 -129 176 -115 370 -44 517 189 42 66 95 168 99
190 1 6 7 19 13 30 6 11 10 23 9 27 -1 5 3 8 10 8 6 0 8 3 5 6 -3 4 -1 16 5
28 7 11 13 26 14 31 2 6 5 19 8 30 2 11 12 40 21 65 18 50 63 213 75 273 4 21
10 40 12 42 3 3 63 -29 134 -70 302 -177 540 -265 723 -268 96 -2 128 3 184
26 48 21 121 89 143 135 45 95 49 229 12 367 -6 22 -11 45 -12 52 -1 7 -5 16
-9 19 -4 4 -7 16 -7 26 0 10 -4 26 -9 36 -14 27 -46 106 -44 109 3 5 -145 292
-157 303 -3 3 -11 16 -18 30 -22 45 -54 95 -65 102 -14 8 24 24 77 32 21 4 43
9 48 12 5 3 23 8 39 11 17 2 90 24 162 49 186 62 199 67 240 90 15 8 27 12 27
8 0 -4 8 0 18 8 9 9 27 19 40 22 12 4 22 12 22 17 0 5 6 9 14 9 23 0 117 69
176 129 50 50 122 161 104 161 -3 0 -2 6 3 12 14 18 9 130 -7 170 -54 133
-206 257 -435 354 -38 16 -72 29 -75 30 -3 0 -18 6 -33 12 -16 7 -34 12 -42
12 -8 0 -16 4 -19 9 -3 5 -23 12 -43 16 -21 5 -42 10 -48 11 -60 19 -234 66
-247 67 -26 2 -23 12 22 83 22 35 40 68 40 73 0 5 7 11 15 15 8 3 14 9 13 14
-3 8 32 82 43 92 3 3 16 28 28 55 59 127 83 181 84 198 1 9 5 17 9 17 4 0 10
16 14 35 3 19 10 35 16 35 5 0 7 3 4 8 -2 4 2 32 10 62 61 228 22 396 -111
487 -89 61 -237 71 -395 27 -30 -8 -63 -17 -72 -19 -9 -2 -27 -9 -40 -16 -13
-7 -24 -11 -26 -10 -12 11 -310 -132 -417 -199 -16 -11 -45 -27 -62 -36 -18
-9 -33 -21 -33 -27 0 -6 -3 -7 -7 -4 -3 4 -12 2 -19 -4 -9 -8 -15 3 -24 45 -6
31 -12 59 -12 63 0 5 -5 19 -10 33 -9 22 -33 107 -43 150 -6 27 -63 177 -76
201 -7 13 -11 25 -10 27 4 5 -71 157 -86 175 -9 9 -12 17 -8 17 5 0 -1 9 -13
20 -12 12 -22 25 -22 30 0 30 -168 188 -184 173 -3 -3 -6 -2 -6 4 0 16 -150
50 -162 37z m75 -208 c86 -36 178 -177 262 -401 21 -55 38 -104 39 -110 1 -5
10 -37 20 -69 35 -119 76 -295 70 -308 -3 -7 -37 -35 -76 -63 -39 -27 -79 -57
-89 -65 -9 -8 -30 -24 -45 -35 -15 -11 -71 -55 -125 -97 -53 -43 -100 -78
-104 -78 -9 0 -99 71 -103 82 -2 5 -10 8 -17 8 -7 0 -15 4 -17 8 -1 4 -23 23
-48 42 -25 19 -47 37 -50 40 -3 3 -48 37 -100 75 -105 77 -111 83 -105 105 2
8 6 26 9 40 2 14 16 72 31 130 15 58 28 113 30 122 2 9 9 26 15 37 6 12 7 21
3 21 -4 0 -2 5 5 12 7 7 12 18 12 26 0 38 110 288 134 304 6 4 7 8 3 8 -10 0
50 87 80 115 71 67 105 77 166 51z m-1412 -632 c60 -16 190 -59 217 -73 9 -5
40 -19 67 -32 42 -19 142 -72 238 -126 12 -7 58 -36 104 -65 73 -47 82 -55 78
-78 -18 -97 -25 -141 -30 -180 -3 -25 -8 -62 -10 -82 -3 -21 -7 -55 -10 -75
-2 -21 -7 -58 -11 -83 -3 -25 -6 -57 -5 -73 1 -31 -6 -35 -64 -41 -22 -2 -40
-5 -40 -6 0 0 -27 -3 -59 -5 -33 -2 -73 -6 -90 -9 -35 -5 -101 -15 -143 -21
-64 -9 -109 -16 -132 -21 -25 -5 -61 19 -61 43 0 7 -4 13 -10 13 -5 0 -10 5
-10 11 0 6 -13 29 -28 52 -16 23 -32 49 -35 57 -4 8 -21 38 -37 65 -67 112
-171 347 -185 418 -2 9 -6 20 -8 25 -6 8 -18 100 -21 147 -3 50 31 120 67 137
40 20 147 20 218 2z m2949 -6 c45 -24 62 -64 62 -137 0 -65 -32 -202 -68 -292
-56 -138 -164 -339 -257 -482 -34 -52 -42 -58 -65 -53 -15 3 -45 8 -67 11 -23
3 -50 7 -60 9 -19 4 -80 12 -157 21 -21 3 -55 7 -75 11 -21 3 -64 7 -96 8 -32
2 -61 7 -65 10 -7 8 -10 23 -16 91 -3 28 -8 70 -11 95 -3 25 -8 60 -10 79 -2
18 -7 51 -10 72 -3 22 -8 58 -11 82 -3 23 -9 62 -14 87 -5 25 -5 47 -1 50 4 3
32 21 62 40 30 19 56 37 59 40 3 3 14 10 25 16 88 47 111 60 115 65 5 6 236
119 243 119 3 0 22 7 43 17 22 9 46 17 54 19 8 1 36 9 63 18 26 8 47 12 47 9
0 -4 5 -2 11 4 5 5 45 10 87 11 59 0 85 -4 112 -20z m-2032 -488 c12 -12 22
-18 22 -15 0 4 6 0 13 -7 8 -7 29 -24 47 -38 18 -14 39 -31 46 -37 7 -7 15
-13 19 -13 4 0 20 -13 37 -30 16 -16 33 -30 37 -30 11 0 71 -58 71 -69 0 -5
-10 -15 -22 -24 -13 -8 -42 -33 -66 -56 -24 -22 -47 -41 -53 -41 -6 0 -7 -4
-4 -10 3 -5 -4 -10 -17 -11 -13 0 -67 -3 -120 -5 l-98 -4 5 42 c2 24 7 70 10
103 4 33 8 71 11 85 2 14 7 45 10 70 3 25 7 54 9 65 2 11 4 26 4 33 1 18 14
15 39 -8z m936 -15 c2 -17 8 -50 12 -75 4 -25 8 -61 10 -80 6 -55 12 -111 19
-168 l6 -53 -113 4 c-70 3 -114 9 -116 16 -2 6 -7 11 -12 11 -5 0 -26 17 -48
38 -22 20 -51 47 -66 59 -25 22 -34 43 -18 43 4 0 21 13 37 28 17 15 68 57
115 92 107 82 108 83 123 96 12 10 40 23 44 20 1 -1 4 -15 7 -31z m-438 -390
c212 -183 730 -712 721 -737 -4 -11 -146 -166 -254 -278 -57 -57 -103 -105
-103 -106 0 -1 -151 -149 -196 -191 -147 -137 -179 -166 -201 -180 -24 -16
-26 -16 -38 0 -7 9 -15 17 -18 17 -6 0 -82 69 -206 188 -36 34 -68 62 -72 62
-4 0 -11 9 -14 20 -4 11 -11 18 -16 15 -5 -4 -9 2 -9 11 0 10 -3 15 -6 12 -3
-4 -19 8 -35 25 -59 64 -104 107 -111 107 -5 0 -8 7 -8 16 0 8 -4 12 -10 9 -5
-3 -10 -2 -10 3 0 5 -21 31 -46 58 -209 224 -200 211 -177 237 30 35 86 97
131 146 23 25 42 50 42 54 0 5 5 5 10 2 6 -3 10 -2 10 4 0 17 319 330 529 520
38 33 31 34 87 -14z m-595 -198 c-10 -9 -11 -8 -5 6 3 10 9 15 12 12 3 -3 0
-11 -7 -18z m1093 7 c3 -8 2 -12 -4 -9 -6 3 -10 10 -10 16 0 14 7 11 14 -7z
m-1302 -115 c-3 -109 -9 -124 -60 -176 -15 -16 -41 -46 -58 -66 l-31 -38 -52
63 c-57 69 -60 72 -111 138 -19 25 -38 47 -42 48 -5 2 -8 9 -8 16 0 7 -9 21
-20 31 -11 10 -20 24 -20 30 0 13 111 31 315 51 33 3 62 8 64 10 3 3 10 3 15
1 7 -3 10 -41 8 -108z m1608 95 c36 -3 83 -8 105 -9 22 -2 40 -4 40 -5 0 -1
14 -3 30 -6 17 -2 44 -6 60 -8 17 -3 38 -5 48 -5 9 -1 17 -6 17 -12 0 -12 -93
-136 -188 -251 l-63 -77 -72 81 c-54 60 -72 89 -74 112 -1 17 -2 33 -3 36 -1
3 -3 40 -5 83 -4 75 -3 77 18 72 12 -3 51 -8 87 -11z m-2199 -117 c7 -12 15
-24 18 -27 13 -11 88 -115 89 -124 0 -5 4 -12 9 -15 5 -3 27 -28 48 -56 22
-27 46 -54 53 -58 6 -4 12 -14 12 -22 0 -7 4 -15 8 -17 4 -1 23 -22 41 -45 36
-46 37 -44 -12 -98 -10 -11 -37 -45 -60 -75 -23 -30 -46 -60 -52 -66 -5 -7
-19 -24 -30 -40 -11 -15 -26 -33 -32 -40 -7 -7 -13 -17 -13 -23 0 -6 -4 -11
-8 -11 -4 0 -15 -12 -24 -27 -9 -16 -28 -41 -42 -58 -14 -16 -26 -33 -26 -37
0 -13 -31 -9 -154 22 -65 17 -128 32 -140 34 -11 2 -32 8 -46 14 -14 5 -45 16
-70 23 -25 7 -76 26 -115 42 -38 16 -74 30 -80 31 -11 2 -117 58 -150 79 -49
30 -127 102 -141 130 -19 35 -14 115 7 128 8 5 10 9 6 9 -13 0 63 70 106 96
44 29 165 94 172 94 6 0 71 28 99 42 19 10 52 19 74 20 6 1 12 6 12 11 0 6 3
8 6 4 4 -3 21 0 38 7 17 7 33 13 36 13 3 1 25 6 50 13 25 7 55 14 67 16 12 2
35 9 50 15 16 6 29 10 31 9 1 -1 15 1 30 4 15 4 38 8 51 11 13 2 26 7 29 9 8
9 41 -14 53 -37z m2931 -8 c24 -7 48 -14 53 -15 180 -46 434 -154 520 -219 54
-42 85 -72 85 -83 0 -6 5 -12 11 -14 6 -2 13 -25 16 -50 4 -36 1 -54 -15 -80
-24 -38 -86 -98 -102 -98 -5 0 -10 -3 -10 -8 0 -4 -21 -19 -47 -32 -27 -14
-49 -28 -51 -32 -2 -5 -8 -8 -13 -8 -6 0 -34 -11 -63 -24 -29 -13 -88 -36
-132 -51 -43 -15 -88 -31 -99 -36 -18 -8 -175 -50 -235 -63 -14 -3 -45 -10
-69 -16 -24 -6 -51 -8 -60 -5 -9 3 -37 36 -63 73 -25 37 -53 76 -62 87 -9 11
-47 61 -86 110 -39 50 -84 106 -100 125 -17 19 -30 37 -30 40 0 6 21 34 91
119 41 51 142 183 194 255 11 16 28 38 37 51 l17 22 85 -18 c47 -10 104 -23
128 -30z m-2413 -633 c68 -75 71 -80 72 -130 0 -28 2 -77 5 -110 l6 -58 -59 5
c-113 11 -293 34 -336 43 l-27 6 50 64 c27 35 50 66 50 69 0 3 12 17 26 30 15
14 23 25 18 25 -5 0 -4 4 1 8 6 4 26 27 45 52 48 61 64 78 71 77 4 -1 39 -37
78 -81z m1769 44 c17 -21 32 -42 32 -46 0 -4 8 -14 18 -23 27 -24 152 -190
152 -201 0 -6 6 -10 13 -11 24 -1 -29 -17 -78 -23 -80 -9 -138 -17 -165 -22
-14 -2 -58 -6 -98 -10 l-73 -5 6 98 c4 54 7 104 8 111 0 8 19 35 42 60 24 26
55 61 71 79 16 18 31 32 34 32 3 1 20 -17 38 -39z m-1478 -350 c0 -5 -2 -10
-4 -10 -3 0 -8 5 -11 10 -3 6 -1 10 4 10 6 0 11 -4 11 -10z m1085 0 c3 -5 1
-10 -4 -10 -6 0 -11 5 -11 10 0 6 2 10 4 10 3 0 8 -4 11 -10z m-1774 -125 c61
-8 114 -17 119 -20 3 -2 34 -6 70 -10 36 -3 79 -8 95 -10 17 -2 57 -7 90 -11
73 -8 108 -12 116 -13 3 -1 6 -7 6 -13 0 -7 3 -40 7 -73 4 -33 8 -80 11 -103
2 -24 6 -56 9 -70 3 -15 8 -49 11 -77 3 -27 7 -61 9 -75 3 -14 7 -43 11 -65 3
-22 8 -48 11 -57 4 -13 -14 -30 -73 -68 -43 -27 -84 -55 -90 -60 -7 -6 -13 -8
-13 -4 0 4 -8 0 -17 -9 -24 -21 -230 -125 -323 -164 -152 -62 -343 -98 -377
-70 -7 5 -13 6 -13 3 0 -4 -13 2 -29 13 -68 48 -70 170 -9 356 32 95 114 274
168 365 18 30 44 74 57 98 57 102 99 155 115 146 5 -3 22 -7 39 -9z m2530 -25
c13 -22 26 -40 31 -40 4 0 8 -4 8 -10 0 -10 59 -111 70 -120 14 -12 160 -322
184 -392 30 -85 35 -104 42 -163 10 -73 10 -80 1 -115 -4 -19 -9 -41 -9 -47
-2 -19 -39 -49 -73 -60 -32 -10 -117 -9 -175 2 -63 13 -207 65 -304 110 -53
25 -99 44 -102 44 -4 0 -10 3 -13 8 -8 10 -40 30 -69 43 -13 6 -54 30 -92 54
-38 25 -71 42 -74 39 -3 -4 -6 -2 -6 4 0 5 -15 18 -34 28 -20 11 -33 25 -31
34 1 9 6 38 9 64 4 27 9 56 10 65 2 10 7 40 10 67 4 28 9 61 11 75 2 14 7 52
10 85 4 33 9 74 11 90 2 17 4 45 5 63 1 17 5 33 8 33 16 4 52 8 121 14 41 3
86 8 100 11 14 2 48 7 75 10 28 3 61 8 75 10 14 3 43 7 65 10 33 4 105 19 112
23 1 1 12 -17 24 -39z m-1694 -61 c71 -1 74 -2 123 -47 27 -25 64 -58 82 -74
l33 -29 -26 -22 c-76 -65 -101 -86 -125 -103 -14 -10 -32 -25 -39 -31 -8 -7
-18 -13 -23 -13 -6 0 -12 -4 -14 -8 -4 -10 -100 -83 -104 -79 -2 2 -6 21 -9
43 -4 21 -8 49 -10 60 -2 12 -6 48 -10 80 -4 33 -9 75 -11 94 -3 19 -7 58 -9
87 l-5 51 37 -3 c21 -2 71 -5 110 -6z m916 -29 c-2 -61 -13 -174 -18 -200 -3
-14 -7 -41 -10 -60 -7 -57 -17 -115 -19 -117 -2 -3 -38 23 -140 100 -52 39
-91 72 -94 80 -2 4 -8 7 -14 7 -5 0 -26 16 -46 36 l-35 35 39 35 c132 118 119
111 186 113 35 1 64 3 65 4 1 2 21 2 45 2 43 0 43 -1 41 -35z m-448 -314 c28
-22 57 -46 65 -54 8 -7 51 -40 95 -73 44 -33 88 -66 98 -74 9 -8 20 -15 23
-15 5 0 10 -3 56 -42 l28 -23 -16 -70 c-20 -93 -20 -91 -38 -162 -9 -34 -27
-94 -40 -132 -13 -39 -22 -71 -19 -71 3 0 1 -6 -4 -12 -6 -7 -16 -31 -23 -53
-15 -45 -89 -207 -99 -215 -3 -3 -12 -16 -19 -31 -22 -42 -92 -118 -124 -135
-68 -35 -113 -23 -183 52 -60 63 -78 84 -70 84 3 0 -5 17 -18 38 -63 103 -159
359 -193 514 -3 13 -7 34 -10 48 -3 14 -7 32 -9 40 -2 8 -4 15 -5 15 -1 0 -3
11 -6 25 -2 14 -6 34 -9 46 -3 14 4 28 20 42 14 12 25 19 25 16 0 -3 6 1 13 8
15 14 37 31 134 102 34 25 72 54 85 65 13 11 54 45 93 75 57 45 72 53 85 43 8
-6 38 -29 65 -51z"/>
<path d="M2489 2842 c-173 -53 -263 -216 -212 -382 23 -76 106 -159 183 -185
116 -38 230 -8 313 85 144 160 69 417 -138 475 -33 9 -124 14 -146 7z"/>
</g>
</svg>
